<svg width="499.997986" height="216.050995" viewBox="0 0 499.998 216.051" fill="none" xmlns="http://www.w3.org/2000/svg" xmlns:xlink="http://www.w3.org/1999/xlink">
	<desc>
			Created with Pixso.
	</desc>
	<path id="path" d="M166.357 45.372L115.433 131.174L115.433 188.892C121.295 202.78 136.111 204.63 150.31 205.249L150.31 213.273L50.617 213.273L50.617 205.249C64.815 204.63 82.099 202.472 86.728 193.214L86.728 133.643L34.876 45.988C25.927 31.173 17.285 26.237 0 25.001L0 16.977L86.729 16.977L86.729 25.001C70.37 25.926 65.124 29.015 60.495 32.72L108.643 116.05L155.865 33.026C150.927 29.323 144.446 25.926 128.088 25.002L128.088 16.978L202.161 16.978L202.161 25.002C185.494 25.62 175 31.173 166.357 45.372ZM267.591 216.051C250.926 216.051 242.9 204.63 242.283 196.608C231.788 207.718 218.21 216.051 205.247 216.051C188.58 216.051 174.381 205.865 174.381 188.276C174.381 179.631 176.542 170.68 180.864 163.583L242.283 141.36L242.283 118.52C242.283 104.632 235.801 91.36 221.912 91.36C213.579 91.36 205.554 101.543 204.938 117.286L177.158 121.913L177.158 118.83C186.417 91.049 216.974 80.249 231.787 80.249C259.874 80.249 270.059 95.062 269.751 117.902L268.826 182.716C268.517 195.371 275.306 198.457 281.48 198.457C286.417 198.457 291.355 195.371 297.221 189.508L297.221 198.457C290.432 206.484 278.396 216.051 267.591 216.051ZM205.864 165.743C204.629 170.68 203.704 175.001 203.704 181.792C203.704 191.05 208.951 200.308 219.135 200.308C228.394 200.308 233.641 197.225 241.975 190.742L242.283 149.073C234.259 152.777 214.507 161.422 205.864 165.743ZM300 213.273L300 206.173C313.888 205.248 317.898 202.162 320.371 196.912L320.371 37.036C320.371 26.542 318.826 22.223 297.53 20.37L297.53 14.198L354.013 0L355.863 5.25L346.914 16.36L346.914 196.913C350 203.088 355.863 205.249 368.518 206.174L368.518 213.274L300 213.273ZM442.59 215.742C410.184 215.742 385.183 190.125 385.183 154.322C385.183 110.494 412.037 80.555 450 80.555C480.554 80.555 497.53 97.843 497.53 125.31L497.53 130.865L414.197 130.249C413.581 133.643 413.269 139.201 413.269 145.989C413.269 177.47 433.023 198.149 459.26 198.149C474.998 198.149 483.025 192.593 495.368 182.1L499.998 189.197C482.407 205.249 467.9 215.742 442.59 215.742ZM445.371 90.126C429.936 90.126 419.137 102.47 415.432 121.913L469.756 121.297C469.755 104.939 459.567 90.126 445.371 90.126Z" fill-rule="nonzero" fill="#FFFFFF"/>
	<defs/>
</svg>
